HIERARCHY
ROOT Hips
{
	OFFSET 0.00000 0.00000 0.00000
	CHANNELS 6 Xposition Yposition Zposition Zrotation Yrotation Xrotation 
	JOINT LHipJoint
	{
		OFFSET 0 0 0
		CHANNELS 3 Zrotation Yrotation Xrotation
		JOINT LeftHip
		{
			OFFSET 1.58161 -1.81893 0.78828
			CHANNELS 3 Zrotation Yrotation Xrotation
			JOINT LeftKnee
			{
				OFFSET 2.53374 -6.96141 0.00000
				CHANNELS 3 Zrotation Yrotation Xrotation
				JOINT LeftAnkle
				{
					OFFSET 2.63509 -7.23986 0.00000
					CHANNELS 3 Zrotation Yrotation Xrotation
					JOINT LeftToe
					{
						OFFSET 0.14115 -0.38781 2.05350
						CHANNELS 3 Zrotation Yrotation Xrotation
						End Site
						{
							OFFSET 0.00000 -0.00000 1.05543
						}
					}
				}
			}
		}
	}
	JOINT RHipJoint
	{
		OFFSET 0 0 0
		CHANNELS 3 Zrotation Yrotation Xrotation
		JOINT RightHip
		{
			OFFSET -1.11138 -1.81893 0.78828
			CHANNELS 3 Zrotation Yrotation Xrotation
			JOINT RightKnee
			{
				OFFSET -2.58392 -7.09926 0.00000
				CHANNELS 3 Zrotation Yrotation Xrotation
				JOINT RightAnkle
				{
					OFFSET -2.66423 -7.31992 0.00000
					CHANNELS 3 Zrotation Yrotation Xrotation
					JOINT RightToe
					{
						OFFSET -0.18831 -0.51739 2.12114
						CHANNELS 3 Zrotation Yrotation Xrotation
						End Site
						{
							OFFSET -0.00000 -0.00000 1.09845
						}
					}
				}
			}
		}
	}
	JOINT lowerback
	{
		OFFSET 0 0 0
		CHANNELS 3 Zrotation Yrotation Xrotation
		JOINT Chest
		{
			OFFSET -0.01511 1.97958 -0.08829
			CHANNELS 3 Zrotation Yrotation Xrotation
			JOINT Chest2
			{
				OFFSET 0.08344 1.97334 -0.04330
				CHANNELS 3 Zrotation Yrotation Xrotation
				JOINT lowerneck
				{
					OFFSET 0 0 0
					CHANNELS 3 Zrotation Yrotation Xrotation
					JOINT Neck
					{
						OFFSET 0.00559 1.76246 0.31246
						CHANNELS 3 Zrotation Yrotation Xrotation
						JOINT Head
						{
							OFFSET -0.07011 1.80354 -0.30524
							CHANNELS 3 Zrotation Yrotation Xrotation
							End Site
							{
								OFFSET -0.02385 1.83547 -0.13906
							}
						}
					}
				}
				JOINT LeftCollar
				{
					OFFSET 0 0 0
					CHANNELS 3 Zrotation Yrotation Xrotation
					JOINT LeftShoulder
					{
						OFFSET 3.20667 1.30156 -0.60240
CHANNELS 3 Zrotation Xrotation Yrotation
						JOINT LeftElbow
						{
OFFSET 0 -4.956630 0.000000
CHANNELS 3 Zrotation Xrotation Yrotation
							JOINT LeftWrist
							{
OFFSET 0 -3.381770 0.000000
CHANNELS 3 Zrotation Xrotation Yrotation
								JOINT lhand
								{
									OFFSET 0 0 0
CHANNELS 3 Zrotation Xrotation Yrotation
									JOINT LFingers
									{
OFFSET 0 -0.662910 0.000000
CHANNELS 3 Zrotation Xrotation Yrotation
										End Site
										{
OFFSET 0 -0.534450 0.000000
										}
									}
								}
								JOINT LThumb
								{
OFFSET 0 0.000000 0.000000
CHANNELS 3 Zrotation Xrotation Yrotation
									End Site
									{
OFFSET 0 -0.542610 0.542610
									}
								}
							}
						}
					}
				}
				JOINT RightCollar
				{
					OFFSET 0 0 0
					CHANNELS 3 Zrotation Yrotation Xrotation
					JOINT RightShoulder
					{
						OFFSET -3.06877 1.34672 -0.60964
CHANNELS 3 Zrotation Xrotation Yrotation
						JOINT RightElbow
						{
OFFSET 0 -5.083650 0.000000
CHANNELS 3 Zrotation Xrotation Yrotation
							JOINT RightWrist
							{
OFFSET 0 -3.359840 0.000000
CHANNELS 3 Zrotation Xrotation Yrotation
								JOINT rhand
								{
									OFFSET 0 0 0
CHANNELS 3 Zrotation Xrotation Yrotation
									JOINT RFingers
									{
OFFSET 0 -0.820760 0.000000
CHANNELS 3 Zrotation Xrotation Yrotation
										End Site
										{
OFFSET 0 -0.661720 0.000000
										}
									}
								}
								JOINT RThumb
								{
OFFSET 0 0.000000 0.000000
CHANNELS 3 Zrotation Xrotation Yrotation
									End Site
									{
OFFSET 0 -0.671820 0.671820
									}
								}
							}
						}
					}
				}
			}
		}
	}
}
MOTION
Frames: 7
Frame Time: 0.008333333333333333
0.677150 9.270508 -4.445408 -5.369167 3.294640 7.170823 0.000000 0.000000 0.000000 2.637868 22.585086 -97.913791 35.542182 12.745872 141.575343 -2.076658 -39.580461 -19.254046 0.818044 -5.771172 -16.121930 0.000000 0.000000 0.000000 20.561934 -41.072543 -103.695317 -35.886958 -12.309418 143.164609 0.279100 30.121575 -19.797254 -0.044854 1.367386 -3.760197 5.025444 8.241584 40.919804 8.166346 12.043712 18.368929 2.008214 5.730888 0.221525 -3.756995 -7.275988 -15.941565 -5.930426 -7.318978 25.278556 -2.480698 -4.276485 10.696304 0.000000 0.000000 0.000000 13.143022 2.493822 -63.888037 101.026486 -59.535559 69.534305 50.911551 28.606608 -12.980028 0.000000 0.000000 0.000000 -7.125000 0.000000 0.000000 23.350057 48.581113 -2.172182 0.000000 0.000000 0.000000 -34.987639 -54.356305 5.839256 -17.481850 -27.488663 -4.307381 -74.474571 -49.089450 -33.973526 0.000000 0.000000 0.000000 7.125000 0.000000 0.000000 -21.835018 -35.061102 -31.601644
0.679120 9.267178 -4.440659 -5.357507 3.275351 7.100661 0.000000 0.000000 0.000000 2.686169 22.634777 -97.852146 35.556739 12.727972 141.641418 -2.034939 -39.568569 -19.438201 0.882206 -5.986706 -16.746114 0.000000 0.000000 0.000000 20.501568 -41.179893 -103.607008 -35.893827 -12.300354 143.196963 0.276313 30.121255 -19.812674 -0.048456 1.420860 -3.907656 5.123984 8.173901 41.023193 8.041785 11.994047 18.356133 1.844470 5.718963 0.226748 -3.605068 -7.229075 -15.850509 -5.883040 -7.317170 25.200175 -2.479761 -4.255784 10.642999 0.000000 0.000000 0.000000 13.337828 2.465345 -63.873905 101.058548 -59.532796 69.561942 51.032342 29.054862 -13.204328 0.000000 0.000000 0.000000 -7.125000 0.000000 0.000000 23.574075 48.921882 -2.402771 0.000000 0.000000 0.000000 -34.731532 -54.260947 6.100004 -17.624329 -27.673380 -4.373406 -74.271298 -48.631188 -34.012528 0.000000 0.000000 0.000000 7.125000 0.000000 0.000000 -21.696004 -34.880750 -31.375608
0.681601 9.264716 -4.436250 -5.377223 3.259690 7.002198 0.000000 0.000000 0.000000 2.830904 22.585430 -97.721366 35.564617 12.718252 141.677120 -2.018020 -39.587651 -19.537675 0.907987 -6.071965 -16.993366 0.000000 0.000000 0.000000 20.470221 -41.269631 -103.466622 -35.896811 -12.296481 143.211050 0.249961 30.077268 -19.926789 -0.055359 1.517034 -4.172634 5.221861 8.122062 41.121119 7.974349 11.964600 18.368373 1.735341 5.714037 0.247483 -3.538548 -7.211795 -15.772911 -5.785490 -7.343973 25.153203 -2.453669 -4.249871 10.610322 0.000000 0.000000 0.000000 13.453239 2.414168 -63.876876 101.108787 -59.528532 69.605301 51.175329 29.377512 -13.410322 0.000000 0.000000 0.000000 -7.125000 0.000000 0.000000 23.818050 49.243080 -2.627745 0.000000 0.000000 0.000000 -34.522675 -54.178839 6.205050 -17.753370 -27.840177 -4.433530 -73.945408 -47.717273 -33.937883 0.000000 0.000000 0.000000 7.125000 0.000000 0.000000 -21.538500 -34.469945 -31.107479
0.682461 9.260928 -4.431951 -5.347810 3.229028 6.999236 0.000000 0.000000 0.000000 2.940242 22.429086 -97.699033 35.572068 12.709042 141.710981 -2.095151 -39.656998 -19.247508 0.867538 -5.937537 -16.603623 0.000000 0.000000 0.000000 20.445192 -41.298196 -103.484416 -35.906654 -12.283620 143.257244 0.235062 30.052006 -19.990971 -0.061263 1.596644 -4.392228 5.177839 8.139547 41.127915 7.963131 11.969894 18.363909 1.741395 5.714083 0.234733 -3.555709 -7.212901 -15.722338 -5.725261 -7.357870 25.182223 -2.430361 -4.250022 10.614356 0.000000 0.000000 0.000000 13.482239 2.389582 -63.906270 101.099897 -59.529312 69.597660 51.333673 29.552106 -13.483297 0.000000 0.000000 0.000000 -7.125000 0.000000 0.000000 24.025458 49.384265 -2.740181 0.000000 0.000000 0.000000 -34.452394 -54.067053 6.366468 -17.833262 -27.943158 -4.470891 -73.804409 -47.249962 -33.918128 0.000000 0.000000 0.000000 7.125000 0.000000 0.000000 -21.464733 -34.303919 -30.983304
0.682752 9.256530 -4.428285 -5.272273 3.203424 7.067414 0.000000 0.000000 0.000000 2.939294 22.290953 -97.786309 35.583718 12.694666 141.763959 -2.173634 -39.671303 -18.891479 0.817321 -5.768333 -16.113767 0.000000 0.000000 0.000000 20.388224 -41.307363 -103.638644 -35.923441 -12.261580 143.336281 0.257966 30.086882 -19.889093 -0.061080 1.594638 -4.386676 5.049117 8.188640 41.085970 7.977141 11.984304 18.348272 1.811096 5.711977 0.201226 -3.596879 -7.213533 -15.754912 -5.725343 -7.341293 25.276012 -2.427144 -4.246315 10.657895 0.000000 0.000000 0.000000 13.469495 2.346382 -63.959601 100.996730 -59.538061 69.508679 51.439743 29.625269 -13.483747 0.000000 0.000000 0.000000 -7.125000 0.000000 0.000000 24.144556 49.411901 -2.772339 0.000000 0.000000 0.000000 -34.514670 -53.945747 6.588718 -17.893938 -28.021120 -4.499335 -73.848537 -47.371923 -34.042525 0.000000 0.000000 0.000000 7.125000 0.000000 0.000000 -21.432661 -34.462593 -30.942466
0.684103 9.253430 -4.424333 -5.201485 3.195306 7.126647 0.000000 0.000000 0.000000 2.870514 22.239988 -97.853833 35.594952 12.680760 141.815081 -2.170669 -39.584901 -18.813022 0.806559 -5.731483 -16.007332 0.000000 0.000000 0.000000 20.318757 -41.356111 -103.792996 -35.939895 -12.239932 143.413858 0.289392 30.145290 -19.757592 -0.059961 1.580166 -4.346679 4.950980 8.219328 41.045401 7.992255 11.986760 18.344279 1.873190 5.706542 0.186116 -3.615500 -7.204920 -15.835971 -5.755893 -7.308101 25.362933 -2.438073 -4.237175 10.706138 0.000000 0.000000 0.000000 13.462555 2.271762 -64.027156 100.900996 -59.546167 69.426114 51.413707 29.563271 -13.468102 0.000000 0.000000 0.000000 -7.125000 0.000000 0.000000 24.108800 49.383593 -2.750248 0.000000 0.000000 0.000000 -34.591895 -53.858015 6.747661 -17.942896 -28.083972 -4.522334 -73.951463 -47.663594 -34.270114 0.000000 0.000000 0.000000 7.125000 0.000000 0.000000 -21.386275 -34.774930 -30.887731
0.686197 9.252741 -4.418389 -5.154466 3.187788 7.129556 0.000000 0.000000 0.000000 2.808610 22.258611 -97.777365 35.599800 12.674700 141.837200 -2.102824 -39.475427 -19.018318 0.833982 -5.825488 -16.279134 0.000000 0.000000 0.000000 20.259954 -41.464058 -103.838403 -35.948982 -12.227976 143.456642 0.284422 30.168625 -19.803677 -0.067094 1.668635 -4.590806 4.911206 8.225750 41.027995 7.995281 11.979082 18.359382 1.900288 5.701165 0.199907 -3.603270 -7.188074 -15.880929 -5.773934 -7.280010 25.388820 -2.445892 -4.225911 10.723548 0.000000 0.000000 0.000000 13.485773 2.209254 -64.079179 100.937520 -59.543073 69.457640 51.259806 29.413970 -13.465521 0.000000 0.000000 0.000000 -7.125000 0.000000 0.000000 23.935207 49.340780 -2.701778 0.000000 0.000000 0.000000 -34.573124 -53.816112 6.780918 -17.976228 -28.126736 -4.538052 -74.038775 -47.761163 -34.492788 0.000000 0.000000 0.000000 7.125000 0.000000 0.000000 -21.332056 -35.064837 -30.818876
